<svg width="22" height="24" viewBox="0 0 22 24" fill="none" xmlns="http://www.w3.org/2000/svg">
<mask id="path-1-inside-1_24637_22" fill="white">
<path d="M16.79 22.75H5.21C2.47 22.75 0.25 20.52 0.25 17.78V10.37C0.25 9.01 1.09 7.3 2.17 6.46L7.56 2.26C9.18 1 11.77 0.940005 13.45 2.12L19.63 6.45C20.82 7.28 21.75 9.06001 21.75 10.51V17.79C21.75 20.52 19.53 22.75 16.79 22.75ZM8.48 3.44L3.09 7.64C2.38 8.2 1.75 9.47001 1.75 10.37V17.78C1.75 19.69 3.3 21.25 5.21 21.25H16.79C18.7 21.25 20.25 19.7 20.25 17.79V10.51C20.25 9.55 19.56 8.22 18.77 7.68L12.59 3.35C11.45 2.55 9.57 2.59 8.48 3.44Z"/>
</mask>
<path d="M16.79 22.75H5.21C2.47 22.75 0.25 20.52 0.25 17.78V10.37C0.25 9.01 1.09 7.3 2.17 6.46L7.56 2.26C9.18 1 11.77 0.940005 13.45 2.12L19.63 6.45C20.82 7.28 21.75 9.06001 21.75 10.51V17.79C21.75 20.52 19.53 22.75 16.79 22.75ZM8.48 3.44L3.09 7.64C2.38 8.2 1.75 9.47001 1.75 10.37V17.78C1.75 19.69 3.3 21.25 5.21 21.25H16.79C18.7 21.25 20.25 19.7 20.25 17.79V10.51C20.25 9.55 19.56 8.22 18.77 7.68L12.59 3.35C11.45 2.55 9.57 2.59 8.48 3.44Z" fill="#48B2E7"/>
<path d="M2.17 6.46L3.39788 8.03871L3.3993 8.03761L2.17 6.46ZM7.56 2.26L6.33212 0.6813L6.3307 0.682404L7.56 2.26ZM13.45 2.12L12.3005 3.75664L12.3024 3.75797L13.45 2.12ZM19.63 6.45L18.4824 8.08797L18.4859 8.09041L19.63 6.45ZM8.48 3.44L9.7093 5.01761L9.70988 5.01715L8.48 3.44ZM3.09 7.64L1.86068 6.06238L1.85143 6.06967L3.09 7.64ZM18.77 7.68L17.6224 9.31797L17.6318 9.32461L17.6414 9.33113L18.77 7.68ZM12.59 3.35L11.4411 4.98712L11.4424 4.98797L12.59 3.35ZM16.79 20.75H5.21V24.75H16.79V20.75ZM5.21 20.75C3.57981 20.75 2.25 19.4207 2.25 17.78H-1.75C-1.75 21.6193 1.36019 24.75 5.21 24.75V20.75ZM2.25 17.78V10.37H-1.75V17.78H2.25ZM2.25 10.37C2.25 10.0681 2.35387 9.60322 2.6002 9.10163C2.84621 8.60069 3.15277 8.22935 3.39788 8.03871L0.942119 4.8813C0.107233 5.53066 -0.546212 6.43432 -0.990197 7.33838C-1.43387 8.24179 -1.75 9.31187 -1.75 10.37H2.25ZM3.3993 8.03761L8.7893 3.83761L6.3307 0.682404L0.940701 4.8824L3.3993 8.03761ZM8.78788 3.83871C9.71216 3.11983 11.3375 3.08025 12.3005 3.75664L14.5995 0.483373C12.2025 -1.20025 8.64784 -1.11982 6.33212 0.6813L8.78788 3.83871ZM12.3024 3.75797L18.4824 8.08797L20.7776 4.81204L14.5976 0.482039L12.3024 3.75797ZM18.4859 8.09041C18.7572 8.27969 19.0935 8.65637 19.3635 9.17336C19.6335 9.69047 19.75 10.1807 19.75 10.51H23.75C23.75 9.38931 23.4015 8.26454 22.909 7.32165C22.4165 6.37864 21.6928 5.45032 20.7741 4.8096L18.4859 8.09041ZM19.75 10.51V17.79H23.75V10.51H19.75ZM19.75 17.79C19.75 19.4181 18.4228 20.75 16.79 20.75V24.75C20.6372 24.75 23.75 21.6219 23.75 17.79H19.75ZM7.2507 1.8624L1.8607 6.0624L4.3193 9.21761L9.7093 5.01761L7.2507 1.8624ZM1.85143 6.06967C1.1898 6.59152 0.689462 7.32398 0.359546 7.99386C0.0308573 8.66125 -0.25 9.51283 -0.25 10.37H3.75C3.75 10.3725 3.74993 10.3559 3.75556 10.319C3.7611 10.2828 3.77102 10.2342 3.78755 10.1742C3.82121 10.0522 3.87509 9.9091 3.94795 9.76115C4.11054 9.43103 4.2802 9.24849 4.32857 9.21034L1.85143 6.06967ZM-0.25 10.37V17.78H3.75V10.37H-0.25ZM-0.25 17.78C-0.25 20.7871 2.18793 23.25 5.21 23.25V19.25C4.41207 19.25 3.75 18.593 3.75 17.78H-0.25ZM5.21 23.25H16.79V19.25H5.21V23.25ZM16.79 23.25C19.8046 23.25 22.25 20.8046 22.25 17.79H18.25C18.25 18.5954 17.5954 19.25 16.79 19.25V23.25ZM22.25 17.79V10.51H18.25V17.79H22.25ZM22.25 10.51C22.25 9.60855 21.9457 8.71461 21.5795 8.01252C21.2142 7.31226 20.6523 6.54403 19.8986 6.02888L17.6414 9.33113C17.6396 9.3299 17.6538 9.33954 17.6815 9.36594C17.7088 9.39195 17.7439 9.42908 17.7844 9.47873C17.8669 9.57995 17.9542 9.71149 18.033 9.86249C18.1117 10.0134 18.1705 10.162 18.2076 10.291C18.2462 10.4253 18.25 10.4991 18.25 10.51H22.25ZM19.9176 6.04204L13.7376 1.71204L11.4424 4.98797L17.6224 9.31797L19.9176 6.04204ZM13.7389 1.71289C12.7515 1.02003 11.5552 0.753236 10.4729 0.776725C9.39155 0.800193 8.2048 1.11838 7.25012 1.86286L9.70988 5.01715C9.8452 4.91163 10.1434 4.78482 10.5596 4.77578C10.9748 4.76677 11.2885 4.87998 11.4411 4.98712L13.7389 1.71289Z" fill="#48B2E7" mask="url(#path-1-inside-1_24637_22)"/>
<path d="M11 18.25C10.8661 18.25 10.75 18.1339 10.75 18V15C10.75 14.8661 10.8661 14.75 11 14.75C11.1339 14.75 11.25 14.8661 11.25 15V18C11.25 18.1339 11.1339 18.25 11 18.25Z" fill="#48B2E7" stroke="#48B2E7"/>
</svg>
