<svg width="24" height="24" viewBox="0 0 24 24" fill="none" xmlns="http://www.w3.org/2000/svg">
<mask id="path-1-inside-1_24637_23" fill="white">
<path d="M17.79 22.75H6.21C3.47 22.75 1.25 20.52 1.25 17.78V10.37C1.25 9.01 2.09 7.3 3.17 6.46L8.56 2.26C10.18 1 12.77 0.940005 14.45 2.12L20.63 6.45C21.82 7.28 22.75 9.06001 22.75 10.51V17.79C22.75 20.52 20.53 22.75 17.79 22.75ZM9.48 3.44L4.09 7.64C3.38 8.2 2.75 9.47001 2.75 10.37V17.78C2.75 19.69 4.3 21.25 6.21 21.25H17.79C19.7 21.25 21.25 19.7 21.25 17.79V10.51C21.25 9.55 20.56 8.22 19.77 7.68L13.59 3.35C12.45 2.55 10.57 2.59 9.48 3.44Z"/>
</mask>
<path d="M17.79 22.75H6.21C3.47 22.75 1.25 20.52 1.25 17.78V10.37C1.25 9.01 2.09 7.3 3.17 6.46L8.56 2.26C10.18 1 12.77 0.940005 14.45 2.12L20.63 6.45C21.82 7.28 22.75 9.06001 22.75 10.51V17.79C22.75 20.52 20.53 22.75 17.79 22.75ZM9.48 3.44L4.09 7.64C3.38 8.2 2.75 9.47001 2.75 10.37V17.78C2.75 19.69 4.3 21.25 6.21 21.25H17.79C19.7 21.25 21.25 19.7 21.25 17.79V10.51C21.25 9.55 20.56 8.22 19.77 7.68L13.59 3.35C12.45 2.55 10.57 2.59 9.48 3.44Z" fill="#48B2E7"/>
<path d="M3.17 6.46L4.39788 8.03871L4.3993 8.03761L3.17 6.46ZM8.56 2.26L7.33212 0.6813L7.3307 0.682404L8.56 2.26ZM14.45 2.12L13.3005 3.75664L13.3024 3.75797L14.45 2.12ZM20.63 6.45L19.4824 8.08797L19.4859 8.09041L20.63 6.45ZM9.48 3.44L10.7093 5.01761L10.7099 5.01715L9.48 3.44ZM4.09 7.64L2.86068 6.06238L2.85143 6.06967L4.09 7.64ZM19.77 7.68L18.6224 9.31797L18.6318 9.32461L18.6414 9.33113L19.77 7.68ZM13.59 3.35L12.4411 4.98712L12.4424 4.98797L13.59 3.35ZM17.79 20.75H6.21V24.75H17.79V20.75ZM6.21 20.75C4.57981 20.75 3.25 19.4207 3.25 17.78H-0.75C-0.75 21.6193 2.36019 24.75 6.21 24.75V20.75ZM3.25 17.78V10.37H-0.75V17.78H3.25ZM3.25 10.37C3.25 10.0681 3.35387 9.60322 3.6002 9.10163C3.84621 8.60069 4.15277 8.22935 4.39788 8.03871L1.94212 4.8813C1.10723 5.53066 0.453788 6.43432 0.0098027 7.33838C-0.433866 8.24179 -0.75 9.31187 -0.75 10.37H3.25ZM4.3993 8.03761L9.7893 3.83761L7.3307 0.682404L1.9407 4.8824L4.3993 8.03761ZM9.78788 3.83871C10.7122 3.11983 12.3375 3.08025 13.3005 3.75664L15.5995 0.483373C13.2025 -1.20025 9.64784 -1.11982 7.33212 0.6813L9.78788 3.83871ZM13.3024 3.75797L19.4824 8.08797L21.7776 4.81204L15.5976 0.482039L13.3024 3.75797ZM19.4859 8.09041C19.7572 8.27969 20.0935 8.65637 20.3635 9.17336C20.6335 9.69047 20.75 10.1807 20.75 10.51H24.75C24.75 9.38931 24.4015 8.26454 23.909 7.32165C23.4165 6.37864 22.6928 5.45032 21.7741 4.8096L19.4859 8.09041ZM20.75 10.51V17.79H24.75V10.51H20.75ZM20.75 17.79C20.75 19.4181 19.4228 20.75 17.79 20.75V24.75C21.6372 24.75 24.75 21.6219 24.75 17.79H20.75ZM8.2507 1.8624L2.8607 6.0624L5.3193 9.21761L10.7093 5.01761L8.2507 1.8624ZM2.85143 6.06967C2.1898 6.59152 1.68946 7.32398 1.35955 7.99386C1.03086 8.66125 0.75 9.51283 0.75 10.37H4.75C4.75 10.3725 4.74993 10.3559 4.75556 10.319C4.7611 10.2828 4.77102 10.2342 4.78755 10.1742C4.82121 10.0522 4.87509 9.9091 4.94795 9.76115C5.11054 9.43103 5.2802 9.24849 5.32857 9.21034L2.85143 6.06967ZM0.75 10.37V17.78H4.75V10.37H0.75ZM0.75 17.78C0.75 20.7871 3.18793 23.25 6.21 23.25V19.25C5.41207 19.25 4.75 18.593 4.75 17.78H0.75ZM6.21 23.25H17.79V19.25H6.21V23.25ZM17.79 23.25C20.8046 23.25 23.25 20.8046 23.25 17.79H19.25C19.25 18.5954 18.5954 19.25 17.79 19.25V23.25ZM23.25 17.79V10.51H19.25V17.79H23.25ZM23.25 10.51C23.25 9.60855 22.9457 8.71461 22.5795 8.01252C22.2142 7.31226 21.6523 6.54403 20.8986 6.02888L18.6414 9.33113C18.6396 9.3299 18.6538 9.33954 18.6815 9.36594C18.7088 9.39195 18.7439 9.42908 18.7844 9.47873C18.8669 9.57995 18.9542 9.71149 19.033 9.86249C19.1117 10.0134 19.1705 10.162 19.2076 10.291C19.2462 10.4253 19.25 10.4991 19.25 10.51H23.25ZM20.9176 6.04204L14.7376 1.71204L12.4424 4.98797L18.6224 9.31797L20.9176 6.04204ZM14.7389 1.71289C13.7515 1.02003 12.5552 0.753236 11.4729 0.776725C10.3916 0.800193 9.2048 1.11838 8.25012 1.86286L10.7099 5.01715C10.8452 4.91163 11.1434 4.78482 11.5596 4.77578C11.9748 4.76677 12.2885 4.87998 12.4411 4.98712L14.7389 1.71289Z" fill="#48B2E7" mask="url(#path-1-inside-1_24637_23)"/>
<path d="M12 18.25C11.8661 18.25 11.75 18.1339 11.75 18V15C11.75 14.8661 11.8661 14.75 12 14.75C12.1339 14.75 12.25 14.8661 12.25 15V18C12.25 18.1339 12.1339 18.25 12 18.25Z" fill="#48B2E7" stroke="#48B2E7"/>
</svg>
